<svg width="32px" height="32px" viewBox="0 0 32 32" xmlns="http://www.w3.org/2000/svg"><g fill="none" class="nc-icon-wrapper"><path d="M17.0098 3H19.0098V5H21.0098V7H23.0098V9H25V11H27V13.0098H25V11.0098H23V21H25V19H27V21.0098H25V23.0098H23V25.0098H21V27.0098H19.0098V29H17.0098V31H15V29H13V27.0098H11V25.0098H9V23.0098H7V21.0098H5V19.0049H3.00488V17.0049H1.00488V14.9951H3.00488V12.9951H5V11H7V9H9V7H11V5H13V3H15V1H17.0098V3ZM11 25H13V27H15.0098V29H17V27H19V25H21V23H11V25ZM7 13.0098H5.00488V15.0049H3.00488V16.9951H5.00488V19H7V21H9V11.0098H7V13.0098ZM29.0049 14.9951H31.0049V17.0049H29.0049V19.0049H27.0049V16.9951H29.0049V15.0049H27.0049V12.9951H29.0049V14.9951ZM15.0098 5H13.0098V7H11.0098V9H21V7H19V5H17V3H15.0098V5Z" fill="#fff"></path><path d="M17 5H19V7H21V9H17V15H23V11H25V13H27V15H29V17H27V19H25V21H23V17H17V23H21V25H19V27H17V29H15V27H13V25H11V23H15V17H9V21H7V19H5V17H3V15H5V13H7V11H9V15H15V9H11V7H13V5H15V3H17V5Z" fill="currentColor"></path></g></svg>