<svg width="32px" height="32px" viewBox="0 0 32 32" xmlns="http://www.w3.org/2000/svg"><g fill="none" class="nc-icon-wrapper"><path d="M26 11H16V13H14V15H12V16H11V26H12V27H14V29H16V31H26V30H27V28H29V26H31V16H30V15H28V13H26V11Z" fill="#00CA48"></path><path d="M13 15H13.01" stroke="currentColor" stroke-width="2" stroke-linecap="square"></path><path d="M13 27H13.01" stroke="currentColor" stroke-width="2" stroke-linecap="square"></path><path d="M15 29H15.01" stroke="currentColor" stroke-width="2" stroke-linecap="square"></path><path d="M27 29H27.01" stroke="currentColor" stroke-width="2" stroke-linecap="square"></path><path d="M29 27H29.01" stroke="currentColor" stroke-width="2" stroke-linecap="square"></path><path d="M29 15H29.01" stroke="currentColor" stroke-width="2" stroke-linecap="square"></path><path d="M20 22H16V20H20V16H22.0098V20H26.0098V22H22.0098V26H20V22Z" fill="#fff"></path><path d="M27 13H27.01" stroke="currentColor" stroke-width="2" stroke-linecap="square"></path><path d="M15 13H15.01" stroke="currentColor" stroke-width="2" stroke-linecap="square"></path><path d="M17 31H25" stroke="currentColor" stroke-width="2" stroke-linecap="square"></path><path d="M17 11H25" stroke="currentColor" stroke-width="2" stroke-linecap="square"></path><path d="M11 17L11 25" stroke="currentColor" stroke-width="2" stroke-linecap="square"></path><path d="M31 17L31 25" stroke="currentColor" stroke-width="2" stroke-linecap="square"></path><path d="M1 6V1H6V3H11V5H14V8H13V9H10V10H9V13H8V14H5V11H3V6H1Z" fill="currentColor"></path><path d="M13 10H10V8H13V10ZM13 6H11V4H6V2H2.00977V6H4.00977V11H6.00977V13H8V10H10V13H8.00977V15H4V11H2V6H0V0H6.00977V2H11.0098V4H15.0098V8H13V6Z" fill="#fff"></path></g></svg>