<svg width="32px" height="32px" viewBox="0 0 32 32" xmlns="http://www.w3.org/2000/svg"><g fill="none" class="nc-icon-wrapper"><path d="M26 11H16V13H14V15H12V16H11V26H12V27H14V29H16V31H26V30H27V28H29V26H31V16H30V15H28V13H26V11Z" fill="#D6D6D6"></path><path d="M13 15H13.01" stroke="currentColor" stroke-width="2" stroke-linecap="square"></path><path d="M17 17H17.01" stroke="currentColor" stroke-width="2" stroke-linecap="square"></path><path d="M17 25H17.01" stroke="currentColor" stroke-width="2" stroke-linecap="square"></path><path d="M25 25H25.01" stroke="currentColor" stroke-width="2" stroke-linecap="square"></path><path d="M23 23H23.01" stroke="currentColor" stroke-width="2" stroke-linecap="square"></path><path d="M19 19H19.01" stroke="currentColor" stroke-width="2" stroke-linecap="square"></path><path d="M21 21H21.01" stroke="currentColor" stroke-width="2" stroke-linecap="square"></path><path d="M25 17H25.01" stroke="currentColor" stroke-width="2" stroke-linecap="square"></path><path d="M13 27H13.01" stroke="currentColor" stroke-width="2" stroke-linecap="square"></path><path d="M15 29H15.01" stroke="currentColor" stroke-width="2" stroke-linecap="square"></path><path d="M27 29H27.01" stroke="currentColor" stroke-width="2" stroke-linecap="square"></path><path d="M29 27H29.01" stroke="currentColor" stroke-width="2" stroke-linecap="square"></path><path d="M29 15H29.01" stroke="currentColor" stroke-width="2" stroke-linecap="square"></path><path d="M27 13H27.01" stroke="currentColor" stroke-width="2" stroke-linecap="square"></path><path d="M15 13H15.01" stroke="currentColor" stroke-width="2" stroke-linecap="square"></path><path d="M17 31H25" stroke="currentColor" stroke-width="2" stroke-linecap="square"></path><path d="M17 11H25" stroke="currentColor" stroke-width="2" stroke-linecap="square"></path><path d="M11 17L11 25" stroke="currentColor" stroke-width="2" stroke-linecap="square"></path><path d="M15 19L15 23" stroke="currentColor" stroke-width="2" stroke-linecap="square"></path><path d="M27 19L27 23" stroke="currentColor" stroke-width="2" stroke-linecap="square"></path><path d="M19 27L23 27" stroke="currentColor" stroke-width="2" stroke-linecap="square"></path><path d="M19 15L23 15" stroke="currentColor" stroke-width="2" stroke-linecap="square"></path><path d="M31 17L31 25" stroke="currentColor" stroke-width="2" stroke-linecap="square"></path><path d="M1 6V1H6V3H11V5H14V8H13V9H10V10H9V13H8V14H5V11H3V6H1Z" fill="currentColor"></path><path d="M13 10H10V8H13V10ZM13 6H11V4H6V2H2.00977V6H4.00977V11H6.00977V13H8V10H10V13H8.00977V15H4V11H2V6H0V0H6.00977V2H11.0098V4H15.0098V8H13V6Z" fill="#fff"></path></g></svg>