<svg width="32px" height="32px" viewBox="0 0 32 32" xmlns="http://www.w3.org/2000/svg"><g fill="none" class="nc-icon-wrapper"><path d="M18 9H9V18H12L14 16L22 24L24 22L16 14L18 12V9Z" fill="currentColor"></path><path d="M17 13V10H10V17H13V15H15V13H17ZM21.0098 23H23V21H21.0098V23ZM19.0098 21H21V19H19.0098V21ZM17.0098 19H19V17H17.0098V19ZM15.0098 17H17V15H15.0098V17ZM17.0098 15H19.0098V17H21.0098V19H23.0098V21H25.0098V23H23.0098V25H21V23H19V21H17V19H15V17H13V19H8V8H19V13H17.0098V15Z" fill="#fff"></path></g></svg>