<svg width="32px" height="32px" viewBox="0 0 32 32" xmlns="http://www.w3.org/2000/svg"><g fill="none" class="nc-icon-wrapper"><path d="M10 22.01L10 18.01L22 18.01L22 22.01L25 22.01L25 20.01L27 20L27 18.01L29 18.01L29 17L30 17L30 15L29 15L29 14.01L27 14.01L27 12.01L25 12.01L25 10.01L22 10.01L22 14.01L10 14.01L10 10.01L7 10.01L7 12.01L5 12.01L5 14.01L3 14.01L3 18.01L5 18.01L5 20.01L7 20.01L7 22.01L10 22.01Z" fill="currentColor"></path><path d="M11 13H21V9H25V11H27V13H29V15H31V17.0098H29V19.0098H27V21.0098H25V23.0098H21V19.0098H11V23.0098H7V21.0098H5V19.0098H3V17.0098H1V15H3V13H5V11H7V9H11V13ZM7 13.0098H5V15.0098H3V17H5V19H7V21H9V17H23V21H25V19H27V17H29V15.0098H27V13.0098H25V11.0098H23V15.0098H9V11.0098H7V13.0098Z" fill="#fff"></path></g></svg>